
        <svg xmlns="http://www.w3.org/2000/svg" xmlns:xlink="http://www.w3.org/1999/xlink" version="1.1" width="3352.9411764705883" height="1202.8548296760111" viewBox="0 0 3352.9411764705883 1202.8548296760111">
			
			<g transform="scale(17.647058823529413) translate(10, 10)">
				<defs id="SvgjsDefs8142"/><g id="SvgjsG8143" featureKey="symbolFeature-0" transform="matrix(0.5555555555555556,0,0,0.5555555555555556,-2.7777777777777777,-3.6968893475002713)" fill="#fff"><path xmlns="http://www.w3.org/2000/svg" d="M49.1869011,68.7746811l17.5949135-10.1588593L49.1864166,48.4569626v20.3167419l0.0004845-0.0002975v0.0002975V68.7746811z   M62.7980232,58.6158218l-11.6197128,6.7070847V51.9077644L62.7980232,58.6158218z"/><path xmlns="http://www.w3.org/2000/svg" d="M94.8666306,58.1183319l0.0001221-0.0004845L70.5361252,15.9742661l-5.3805084-9.3198652l-0.8625793,0.4979739h-0.0001221  l-4.9588852,2.8629231L34.8463287,24.1525364L12.2259073,63.331192L5.4979739,74.9837875l0.0000606,0.0001221L5,75.846489  l3.9683495,2.2910919l26.1094589,15.0747681h0.0014l0.2291069,0.1322784l12.6186981,0.0001831l46.0770378,0.0007858l0,0H95  v-0.9959412V58.6158218v-0.2664948L94.8666306,58.1183319z M93.0081024,74.6412506L64.5206909,91.3532181l-25.2260933-0.0004272  l53.7135048-31.0117493V74.6412506z M36.5717278,26.6070881l55.4401894,32.0086136L36.5717278,90.6242523V26.6070881z   M37.5678596,24.8816872l12.3839951-7.149559l28.7182884,16.315815L91.2828217,55.894474L37.5678596,24.8816872z   M34.5793495,90.6235809l-12.3842411-7.1501083l-0.2295341-33.0268021l12.6137753-21.8465328V90.6235809z M76.7015915,30.6381092  L51.9522629,16.5772209l12.4738998-7.2014713L76.7015915,30.6381092z M19.9972649,53.855648l0.1978035,28.4631004  L7.7213488,75.1170349L19.9972649,53.855648z M68.4560928,91.3532791l24.5520096-14.403244v14.4036713L68.4560928,91.3532791z"/></g><g id="SvgjsG8144" featureKey="textGroupContainer" transform="matrix(0.5,0,0,0.5,123.5,2)" fill="#fff"><rect xmlns="http://www.w3.org/2000/svg" y="0" height="1" width="1" opacity="0"/><rect xmlns="http://www.w3.org/2000/svg" y="0" x="-135" width="3" height="90"/></g><g id="SvgjsG8145" featureKey="vMvB0T-0" transform="matrix(1.9896537156713312,0,0,1.9896537156713312,66.97572662731442,-10.335849811443452)" fill="#fff"><path d="M4.7 9.06 l0.02 1.56 l0 1.26 l4.28 0 q0.16 0.6 0.16 1.31 t-0.16 1.31 l-4.28 0 l0 5.5 q-0.64 0.12 -1.6 0.12 t-1.6 -0.12 l0 -13.54 l0.14 -0.12 l8.56 0 q0.12 0.5 0.12 1.25 t-0.41 1.11 t-1.29 0.36 l-3.94 0 z M22.020000000000003 10.56 q0 0.66 -0.2 1.25 t-0.53 1.06 t-0.78 0.82 t-0.93 0.53 q1.04 0.38 1.54 1.84 l0.6 1.7 q0.34 1 1 1.48 q-0.3 0.4 -0.9 0.67 t-1.32 0.27 t-1.12 -0.41 t-0.74 -1.43 l-0.72 -2.1 q-0.22 -0.6 -0.59 -0.92 t-1.11 -0.32 l-0.82 0 l0 5 q-0.64 0.12 -1.6 0.12 t-1.58 -0.12 l0 -13.56 l0.14 -0.14 q1.74 -0.04 2.93 -0.06 t1.87 -0.02 q1.1 0 2 0.27 t1.53 0.81 t0.98 1.36 t0.35 1.9 z M15.400000000000002 8.62 l0 3.92 q0.9 0 1.54 -0.03 t1.03 -0.24 t0.59 -0.59 t0.2 -1.1 q0 -1.94 -1.88 -1.94 l-0.83 0 t-0.65 -0.02 z M34.879999999999995 6.34 l0 8.62 q0 2.56 -1.4 3.95 t-4 1.39 t-4.01 -1.39 t-1.41 -3.95 l0 -8.62 l0.14 -0.14 l1.18 0 q1.9 0 1.9 2.04 l0 6.76 q0 1.4 0.5 2.08 t1.7 0.68 t1.7 -0.68 t0.5 -2.08 l0 -8.66 q0.62 -0.12 1.6 -0.12 q0.96 0 1.6 0.12 z M37.300000000000004 19.96 l1.06 -13.6 q0.88 -0.16 2.08 -0.16 t2.1 0.16 l1.18 4.9 q0.7 3.32 0.74 3.62 l0.14 0 q0.08 -0.5 0.74 -3.62 l1.2 -4.9 q0.88 -0.16 2.08 -0.16 t2.1 0.16 l1.06 13.6 q-0.62 0.16 -1.53 0.16 t-1.49 -0.1 l-0.32 -5.56 q-0.14 -3.32 -0.16 -4.62 l-0.12 0 l-1.98 8.14 q-0.72 0.12 -1.65 0.12 t-1.65 -0.12 l-1.96 -8.14 l-0.14 0 q0 1.78 -0.16 4.62 l-0.3 5.56 q-0.58 0.1 -1.49 0.1 t-1.53 -0.16 z"/></g><g id="SvgjsG8146" featureKey="sloganFeature-0" transform="matrix(0.47720271207410153,0,0,0.47720271207410153,72.44644492680939,36.404017446559116)" fill="#fff"><path d="M2.82 20 l-1.66 0 l0 -14.36 l1.76 0 l0 5.22 l0.04 0 c0.76 -1.1 1.8 -1.6 3.02 -1.62 c2.78 0 4.36 2.28 4.36 5.22 c0 2.5 -1.04 5.84 -4.6 5.84 c-1.78 0 -2.52 -1.02 -2.88 -1.6 l-0.04 0 l0 1.3 z M8.52 14.74 c0 -1.34 -0.14 -3.92 -2.86 -3.92 c-2.54 0 -2.82 2.74 -2.82 4.44 c0 2.78 1.74 3.52 2.86 3.52 c1.92 0 2.82 -1.74 2.82 -4.04 z M22.872 16.72 l1.76 0 c-0.06 0.5 -0.54 1.98 -1.86 2.86 c-0.48 0.32 -1.16 0.72 -2.84 0.72 c-2.94 0 -4.68 -2.22 -4.68 -5.24 c0 -3.24 1.56 -5.82 5.02 -5.82 c3.02 0 4.5 2.4 4.5 6.1 l-7.64 0 c0 2.18 1.02 3.44 3.04 3.44 c1.66 0 2.64 -1.28 2.7 -2.06 z M17.132 13.940000000000001 l5.82 0 c-0.1 -1.62 -0.78 -3.12 -2.92 -3.12 c-1.62 0 -2.9 1.5 -2.9 3.12 z M37.844 12.52 l-1.7 0 c-0.02 -0.66 -0.26 -1.76 -2.48 -1.76 c-0.54 0 -2.08 0.18 -2.08 1.48 c0 0.86 0.54 1.06 1.9 1.4 l1.76 0.44 c2.18 0.54 2.94 1.34 2.94 2.76 c0 2.16 -1.78 3.46 -4.14 3.46 c-4.14 0 -4.44 -2.4 -4.5 -3.66 l1.7 0 c0.06 0.82 0.3 2.14 2.78 2.14 c1.26 0 2.4 -0.5 2.4 -1.66 c0 -0.84 -0.58 -1.12 -2.08 -1.5 l-2.04 -0.5 c-1.46 -0.36 -2.42 -1.1 -2.42 -2.54 c0 -2.3 1.9 -3.34 3.96 -3.34 c3.74 0 4 2.76 4 3.28 z M47.376000000000005 11 l-1.68 0 l0 6.8 c0 0.82 0.7 0.82 1.06 0.82 l0.62 0 l0 1.38 c-0.64 0.06 -1.14 0.14 -1.32 0.14 c-1.74 0 -2.12 -0.98 -2.12 -2.24 l0 -6.9 l-1.42 0 l0 -1.46 l1.42 0 l0 -2.92 l1.76 0 l0 2.92 l1.68 0 l0 1.46 z M65.26 11 l-1.76 0 l0 9 l-1.76 0 l0 -9 l-1.44 0 l0 -1.46 l1.44 0 l0 -1.8 c0 -1.58 1 -2.3 2.72 -2.3 c0.26 0 0.52 0.02 0.8 0.04 l0 1.58 c-0.22 -0.02 -0.5 -0.04 -0.72 -0.04 c-0.76 0 -1.04 0.38 -1.04 1.22 l0 1.3 l1.76 0 l0 1.46 z M69.61200000000001 14.76 c0 -2.7 1.52 -5.52 4.86 -5.52 s4.86 2.82 4.86 5.52 s-1.52 5.52 -4.86 5.52 s-4.86 -2.82 -4.86 -5.52 z M71.432 14.76 c0 1.4 0.52 4 3.04 4 s3.04 -2.6 3.04 -4 s-0.52 -4 -3.04 -4 s-3.04 2.6 -3.04 4 z M86.664 13.92 l0 6.08 l-1.76 0 l0 -10.46 l1.66 0 l0 1.74 l0.04 0 c0.7 -1.22 1.62 -2.04 2.94 -2.04 c0.22 0 0.32 0.02 0.46 0.06 l0 1.82 l-0.66 0 c-1.64 0 -2.68 1.28 -2.68 2.8 z M103.13600000000001 20 l-1.66 0 l0 -1.52 l-0.04 -0.04 c-0.74 1.22 -1.64 1.86 -3.32 1.86 c-1.54 0 -3.4 -0.74 -3.4 -3.24 l0 -7.52 l1.76 0 l0 6.94 c0 1.72 0.88 2.3 2.02 2.3 c2.22 0 2.88 -1.96 2.88 -3.48 l0 -5.76 l1.76 0 l0 10.46 z M109.108 20 l0 -10.46 l1.66 0 l0 1.48 l0.04 0 c0.38 -0.56 1.28 -1.78 3.16 -1.78 s2.48 1.14 2.78 1.7 c0.88 -0.98 1.58 -1.7 3.2 -1.7 c1.12 0 3.24 0.58 3.24 3.52 l0 7.24 l-1.76 0 l0 -6.76 c0 -1.44 -0.44 -2.42 -1.94 -2.42 c-1.48 0 -2.46 1.4 -2.46 2.8 l0 6.38 l-1.76 0 l0 -7.24 c0 -0.88 -0.34 -1.94 -1.64 -1.94 c-1 0 -2.76 0.64 -2.76 3.48 l0 5.7 l-1.76 0 z M145.112 16.72 l1.76 0 c-0.06 0.5 -0.54 1.98 -1.86 2.86 c-0.48 0.32 -1.16 0.72 -2.84 0.72 c-2.94 0 -4.68 -2.22 -4.68 -5.24 c0 -3.24 1.56 -5.82 5.02 -5.82 c3.02 0 4.5 2.4 4.5 6.1 l-7.64 0 c0 2.18 1.02 3.44 3.04 3.44 c1.66 0 2.64 -1.28 2.7 -2.06 z M139.372 13.940000000000001 l5.82 0 c-0.1 -1.62 -0.78 -3.12 -2.92 -3.12 c-1.62 0 -2.9 1.5 -2.9 3.12 z M156.104 18.06 l2.96 -8.52 l1.92 0 l-3.98 10.46 l-1.88 0 l-3.82 -10.46 l2.04 0 l2.72 8.52 l0.04 0 z M172.896 16.72 l1.76 0 c-0.06 0.5 -0.54 1.98 -1.86 2.86 c-0.48 0.32 -1.16 0.72 -2.84 0.72 c-2.94 0 -4.68 -2.22 -4.68 -5.24 c0 -3.24 1.56 -5.82 5.02 -5.82 c3.02 0 4.5 2.4 4.5 6.1 l-7.64 0 c0 2.18 1.02 3.44 3.04 3.44 c1.66 0 2.64 -1.28 2.7 -2.06 z M167.156 13.940000000000001 l5.82 0 c-0.1 -1.62 -0.78 -3.12 -2.92 -3.12 c-1.62 0 -2.9 1.5 -2.9 3.12 z M182.228 13.92 l0 6.08 l-1.76 0 l0 -10.46 l1.66 0 l0 1.74 l0.04 0 c0.7 -1.22 1.62 -2.04 2.94 -2.04 c0.22 0 0.32 0.02 0.46 0.06 l0 1.82 l-0.66 0 c-1.64 0 -2.68 1.28 -2.68 2.8 z"/></g>
			</g>
		</svg>
	